<?xml version="1.0" encoding="UTF-8"?>
<svg id="Layer_1" xmlns="http://www.w3.org/2000/svg" version="1.1" viewBox="0 0 256 256">
  <!-- Generator: Adobe Illustrator 30.1.0, SVG Export Plug-In . SVG Version: 2.1.1 Build 136)  -->
  <path d="M127.7,50.2c-37.1,0-67.1,30.1-67.1,67.1,0,23.3,11.9,43.9,29.9,55.9v45.5h74.8v-45.8c17.8-12.1,29.5-32.4,29.5-55.6,0-37.1-30.1-67.1-67.1-67.1ZM163.2,153.4c-4,3.9-8.6,7.1-13.7,9.6v37.5h-43.2v-37.5c-5.1-2.4-9.7-5.7-13.7-9.6-9.3-9.2-15.1-21.9-15.1-36,0-27.8,22.6-50.4,50.4-50.4s50.4,22.6,50.4,50.4c0,14.2-5.8,26.9-15.1,36Z"/>
  <path d="M94.3,229h67.5v17h-67.5v-17Z"/>
  <path d="M35.3,175.2l18.7-18.7,12,12-18.7,18.7-12-12h0Z"/>
  <path d="M26.9,94.4h26.4v17h-26.4v-17Z"/>
  <path d="M55.8,27l18.7,18.7-12,12-18.7-18.7,12-12h0Z"/>
  <path d="M119.7,10h17v26.4h-17V10h0Z"/>
  <path d="M212.8,38.7l-18.7,18.7-12-12,18.7-18.7,12,12h0Z"/>
  <path d="M202.7,94.3h26.4v17h-26.4v-17Z"/>
  <path d="M209,187.1l-18.7-18.7,12-12,18.7,18.7-12,12Z"/>
</svg>